<svg width="12" height="17" viewBox="0 0 12 17" fill="none" xmlns="http://www.w3.org/2000/svg">
<path fill-rule="evenodd" clip-rule="evenodd" d="M5.7971 0.67392C3.55595 0.67392 1.73913 2.49074 1.73913 4.73189V7.12378C0.738999 7.3812 0 8.28909 0 9.36957V14.0073C0 15.2879 1.03818 16.3261 2.31884 16.3261H9.27536C10.556 16.3261 11.5942 15.2879 11.5942 14.0073V9.36957C11.5942 8.28909 10.8552 7.3812 9.85507 7.12378V4.73189C9.85507 2.49074 8.03826 0.67392 5.7971 0.67392ZM9.27536 8.21015H2.31884C1.67851 8.21015 1.15942 8.72924 1.15942 9.36957V14.0073C1.15942 14.6476 1.67851 15.1667 2.31884 15.1667H9.27536C9.91569 15.1667 10.4348 14.6476 10.4348 14.0073V9.36957C10.4348 8.72924 9.91569 8.21015 9.27536 8.21015ZM2.89855 7.05073H8.69565V4.73189C8.69565 3.13107 7.39793 1.83334 5.7971 1.83334C4.19628 1.83334 2.89855 3.13107 2.89855 4.73189V7.05073Z" fill="white" fill-opacity="0.3"/>
</svg>
