<svg width="15" height="17" viewBox="0 0 15 17" fill="none" xmlns="http://www.w3.org/2000/svg">
<path d="M10.5128 3.102C11.9688 3.102 13.2008 3.64333 14.2088 4.726L12.9488 5.888C12.2861 5.244 11.4741 4.922 10.5128 4.922C9.6448 4.922 8.9168 5.22067 8.3288 5.818C7.75013 6.41533 7.4608 7.176 7.4608 8.1C7.4608 9.03333 7.75013 9.79867 8.3288 10.396C8.9168 10.984 9.6448 11.278 10.5128 11.278C11.4928 11.278 12.3048 10.956 12.9488 10.312L14.2088 11.474C13.2008 12.5567 11.9688 13.098 10.5128 13.098C9.13146 13.098 7.95546 12.6127 6.9848 11.642C6.01413 10.662 5.5288 9.48133 5.5288 8.1C5.5288 6.71867 6.01413 5.54267 6.9848 4.572C7.95546 3.592 9.13146 3.102 10.5128 3.102Z" fill="white"/>
<circle cx="4" cy="3" r="1.5" stroke="white"/>
</svg>
