<svg width="18" height="19" viewBox="0 0 18 19" fill="none" xmlns="http://www.w3.org/2000/svg">
<path d="M18 6.23047V5.28125C18 4.19394 17.1186 3.3125 16.0312 3.3125H1.96875C0.881438 3.3125 0 4.19394 0 5.28125V6.23047C0 6.32754 0.0787148 6.40625 0.175781 6.40625H17.8242C17.9213 6.40625 18 6.32754 18 6.23047Z" fill="white"/>
<path d="M0 7.70703V13.7188C0 14.8061 0.881438 15.6875 1.96875 15.6875H16.0312C17.1186 15.6875 18 14.8061 18 13.7188V7.70703C18 7.60996 17.9213 7.53125 17.8242 7.53125H0.175781C0.0787148 7.53125 0 7.60996 0 7.70703ZM4.5 12.3125C4.5 12.6231 4.24814 12.875 3.9375 12.875H3.375C3.06436 12.875 2.8125 12.6231 2.8125 12.3125V11.75C2.8125 11.4394 3.06436 11.1875 3.375 11.1875H3.9375C4.24814 11.1875 4.5 11.4394 4.5 11.75V12.3125Z" fill="white"/>
</svg>
