<svg width="18" height="19" viewBox="0 0 18 19" fill="none" xmlns="http://www.w3.org/2000/svg">
<g clip-path="url(#clip0)">
<path d="M4.20649 4.14946L11.3822 2.19079L11.0022 1.42268C10.7536 0.923409 10.1472 0.717233 9.64793 0.965857L3.22412 4.14946H4.20649Z" fill="white"/>
<path d="M13.6093 2.24707C13.5203 2.24707 13.4314 2.2592 13.3424 2.28345L11.6567 2.74432L6.5083 4.14914H12.352H14.8989L14.5835 2.99294C14.4623 2.54218 14.0539 2.24707 13.6093 2.24707Z" fill="white"/>
<path d="M15.9524 4.85645H15.722H15.4086H15.0953H12.7041H3.91735H2.76519H1.79495H1.61505H1.01269C0.693318 4.85645 0.40831 5.004 0.222347 5.23646C0.137451 5.34359 0.0727681 5.46689 0.0363841 5.60232C0.0141494 5.68721 0 5.77615 0 5.86711V5.98839V7.14055V17.128C0 17.6859 0.452779 18.1386 1.01067 18.1386H15.9504C16.5083 18.1386 16.961 17.6859 16.961 17.128V14.3082H10.9637C10.0157 14.3082 9.24559 13.5381 9.24559 12.5901V11.6643V11.351V11.0377V10.3424C9.24559 9.87744 9.43154 9.455 9.73274 9.14574C9.99955 8.87082 10.3573 8.68486 10.7576 8.63837C10.8243 8.6303 10.893 8.62624 10.9617 8.62624H16.1202H16.4335H16.7468H16.961V5.86711C16.9631 5.30922 16.5103 4.85645 15.9524 4.85645Z" fill="white"/>
<path d="M17.6701 9.5929C17.569 9.49992 17.4498 9.42917 17.3163 9.38268C17.2132 9.34834 17.1041 9.32812 16.9889 9.32812H16.9626H16.9424H16.6291H15.4992H10.9633C10.4054 9.32812 9.95264 9.78088 9.95264 10.3388V10.8421V11.1554V11.4687V12.5885C9.95264 13.1464 10.4054 13.5992 10.9633 13.5992H16.9626H16.9889C17.1041 13.5992 17.2133 13.579 17.3163 13.5446C17.4498 13.5001 17.569 13.4274 17.6701 13.3344C17.8722 13.1505 17.9996 12.8836 17.9996 12.5885V10.3388C17.9996 10.0437 17.8722 9.77682 17.6701 9.5929ZM13.0736 11.6648C13.0736 11.9437 12.8472 12.1701 12.5682 12.1701H12.2327C11.9538 12.1701 11.7274 11.9437 11.7274 11.6648V11.3292C11.7274 11.1675 11.8022 11.024 11.9214 10.933C12.0083 10.8663 12.1155 10.8239 12.2327 10.8239H12.3176H12.5682C12.8472 10.8239 13.0736 11.0503 13.0736 11.3292V11.6648Z" fill="white"/>
</g>
<defs>
<clipPath id="clip0">
<rect width="18" height="18" fill="white" transform="translate(0 0.5)"/>
</clipPath>
</defs>
</svg>
