<svg width="17" height="22" viewBox="0 0 17 22" fill="none" xmlns="http://www.w3.org/2000/svg">
<path d="M1.92325 0.515933C1.73025 0.521933 1.54225 0.597943 1.40225 0.732943L0.87525 1.26593C-0.29175 2.43193 -0.29175 4.34194 0.87525 5.50794C0.88025 5.51394 0.880252 5.51392 0.886252 5.51392L4.79425 9.27594C5.08725 9.56294 5.55625 9.55692 5.84325 9.26392L7.36125 7.75293L9.69325 10.0849L1.69525 18.0829C1.40225 18.3759 1.40225 18.8499 1.69525 19.1429L3.81625 21.2639C4.10325 21.5569 4.58325 21.5569 4.87125 21.2639L12.8752 13.2659L15.4352 15.8329L16.5013 14.7659L13.9352 12.2059L14.7792 11.3559C15.0722 11.0629 15.0722 10.5889 14.7792 10.2959L12.6643 8.17392C12.3713 7.88192 11.8902 7.88192 11.6032 8.17392L10.7532 9.02393L2.46825 0.732943C2.32225 0.591943 2.12825 0.509933 1.92325 0.515933ZM1.93525 2.32694L6.30025 6.69193L5.30425 7.68793L1.93525 4.44794C1.34325 3.85594 1.34325 2.91894 1.93525 2.32694ZM12.1302 9.76795L13.1913 10.8229L4.34325 19.6759L3.28325 18.6099L12.1302 9.76795Z" fill="white"/>
</svg>
