<svg width="25" height="20" viewBox="0 0 25 20" fill="none" xmlns="http://www.w3.org/2000/svg">
<path d="M3.32364 8.39769C3.32364 8.39769 2.38854 0.856352 12.0159 0.335938C11.7145 0.48213 11.4575 0.706221 11.2717 0.985012C12.7947 0.558841 14.384 0.420578 15.9578 0.577398C15.4892 0.62336 15.0457 0.810929 14.6864 1.11524C14.6864 1.11524 18.0603 0.592988 20.5051 1.67746C19.9543 1.69148 19.4171 1.85187 18.9487 2.14209C20.6331 2.29179 22.2031 3.05798 23.3576 4.29366C23.0999 4.27295 22.8405 4.29782 22.5914 4.36714C23.4588 4.7228 24.2701 5.20227 25 5.79066C25 5.79066 23.5975 6.48612 22.7725 8.72455C22.7725 8.72455 24.8479 9.38738 24.75 12.9079C24.5157 15.1221 23.9698 17.292 23.1283 19.3534C23.0411 19.5757 22.8075 19.704 22.5731 19.6583C22.323 19.61 22.151 19.3788 22.1768 19.1254C22.2683 18.2339 22.3536 16.168 21.4725 14.5055C21.2742 14.1207 21.0555 13.7467 20.8176 13.385C20.4842 12.9415 20.2439 12.4351 20.1112 11.8963C20.1112 11.8963 14.4281 12.7222 9.88629 12.1789C5.34444 11.6356 5.89232 11.0508 4.57275 10.9188C4.57275 10.9188 4.81664 12.3036 3.96969 13.2491C3.40251 13.9519 2.98135 14.761 2.73094 15.6287C2.49471 16.7897 2.43046 17.9792 2.5404 19.1589C2.55437 19.3725 2.41832 19.5672 2.21295 19.6276C1.99145 19.6917 1.75684 19.5808 1.66567 19.369C1.13884 18.1321 -0.449325 14.0579 0.122338 11.1478C0.341519 9.94512 1.19969 8.95797 2.36017 8.57366C2.673 8.47602 2.99651 8.41695 3.32364 8.39769Z" fill="white"/>
</svg>
