<svg width="16" height="17" viewBox="0 0 16 17" fill="none" xmlns="http://www.w3.org/2000/svg">
<g clip-path="url(#clip0_481:155)">
<path d="M10.0336 3.83268C10.6848 3.95973 11.2832 4.27819 11.7523 4.74731C12.2214 5.21642 12.5399 5.81486 12.6669 6.46602L10.0336 3.83268ZM10.0336 1.16602C11.3865 1.31631 12.648 1.92213 13.6111 2.88402C14.5742 3.84591 15.1816 5.10669 15.3336 6.45935L10.0336 1.16602ZM14.6669 11.7793V13.7793C14.6677 13.965 14.6297 14.1488 14.5553 14.3189C14.4809 14.489 14.3718 14.6417 14.235 14.7673C14.0982 14.8928 13.9367 14.9883 13.7608 15.0478C13.5849 15.1073 13.3985 15.1294 13.2136 15.1127C11.1622 14.8898 9.19161 14.1888 7.46028 13.066C5.8495 12.0425 4.48384 10.6768 3.46028 9.06602C2.3336 7.32682 1.63244 5.34668 1.41361 3.28602C1.39695 3.10166 1.41886 2.91586 1.47795 2.74043C1.53703 2.56501 1.63199 2.40381 1.75679 2.2671C1.88159 2.13038 2.03348 2.02116 2.20281 1.94636C2.37213 1.87157 2.55517 1.83286 2.74028 1.83268H4.74028C5.06382 1.8295 5.37748 1.94407 5.62279 2.15504C5.8681 2.36601 6.02833 2.65898 6.07361 2.97935C6.15803 3.61939 6.31458 4.24783 6.54028 4.85268C6.62998 5.0913 6.64939 5.35063 6.59622 5.59994C6.54305 5.84925 6.41952 6.07809 6.24028 6.25935L5.39361 7.10602C6.34265 8.77505 7.72458 10.157 9.39361 11.106L10.2403 10.2593C10.4215 10.0801 10.6504 9.95658 10.8997 9.90341C11.149 9.85024 11.4083 9.86965 11.6469 9.95935C12.2518 10.185 12.8802 10.3416 13.5203 10.426C13.8441 10.4717 14.1399 10.6348 14.3513 10.8843C14.5627 11.1339 14.6751 11.4524 14.6669 11.7793Z" stroke="white" stroke-linecap="round" stroke-linejoin="round"/>
</g>
<defs>
<clipPath id="clip0_481:155">
<rect width="16" height="16" fill="white" transform="translate(0 0.5)"/>
</clipPath>
</defs>
</svg>
