<svg width="21" height="20" viewBox="0 0 21 20" fill="none" xmlns="http://www.w3.org/2000/svg">
<g clip-path="url(#clip0)">
<path fill-rule="evenodd" clip-rule="evenodd" d="M20.1105 2.58779C20.2504 2.64841 20.3756 2.73835 20.4778 2.85154C20.5785 2.9626 20.6546 3.09367 20.7012 3.23619C20.7478 3.37871 20.7637 3.52946 20.748 3.67857L19.4291 17.3245C19.4028 17.6113 19.2699 17.8777 19.0568 18.0713C18.8436 18.2649 18.5657 18.3717 18.2778 18.3705H6.39118C6.5202 17.8804 6.58891 17.366 6.58891 16.8354C6.58891 13.9433 4.54693 11.5281 1.82605 10.9528C1.82582 10.8208 1.85537 10.69 1.91289 10.5705L5.45884 3.1083C5.547 2.92708 5.68406 2.77411 5.85456 2.66666C6.02505 2.55921 6.22218 2.50155 6.4237 2.50019H19.6669C19.8194 2.4973 19.9706 2.52718 20.1105 2.58779ZM14.3918 13.9899C14.5189 13.8628 14.5906 13.6907 14.5913 13.511C14.5906 13.3316 14.5188 13.1597 14.3916 13.0331C14.2645 12.9064 14.0923 12.8353 13.9129 12.8353H11.6237C11.4443 12.8353 11.2721 12.9064 11.145 13.0331C11.0178 13.1597 10.946 13.3316 10.9453 13.511C10.946 13.6907 11.0177 13.8628 11.1448 13.9899C11.2719 14.117 11.444 14.1887 11.6237 14.1894H13.9129C14.0926 14.1887 14.2647 14.117 14.3918 13.9899ZM17.4183 10.7056L18.4399 5.18127H18.4372C18.4542 5.08781 18.4505 4.99175 18.4263 4.89989C18.4021 4.80802 18.3581 4.72259 18.2972 4.64963C18.2364 4.57667 18.1603 4.51797 18.0742 4.47767C17.9882 4.43737 17.8944 4.41645 17.7994 4.41641L7.46695 4.43533C7.35406 4.43605 7.24362 4.46832 7.1481 4.52849C7.05258 4.58867 6.97579 4.67435 6.92641 4.77587L4.21289 10.3002C4.1638 10.4003 4.141 10.5112 4.14663 10.6226C4.15227 10.7339 4.18615 10.842 4.24509 10.9366C4.30403 11.0312 4.38608 11.1093 4.48353 11.1634C4.58097 11.2176 4.6906 11.2461 4.80208 11.2461H16.7832C16.9357 11.2451 17.083 11.1903 17.1991 11.0915C17.3153 10.9926 17.3929 10.856 17.4183 10.7056Z" fill="#15D055"/>
<path d="M3.8573 15.6251H3.70105V15.0001C3.70105 14.3107 3.14042 13.7501 2.45105 13.7501C1.76167 13.7501 1.20105 14.3107 1.20105 15.0001V15.6251H1.0448C0.786466 15.6251 0.57605 15.8353 0.57605 16.0938V18.2813C0.57605 18.5399 0.786466 18.7501 1.0448 18.7501H3.8573C4.11563 18.7501 4.32605 18.5399 4.32605 18.2813V16.0938C4.32605 15.8353 4.11563 15.6251 3.8573 15.6251ZM1.61772 15.0001C1.61772 14.5405 1.99147 14.1667 2.45105 14.1667C2.91063 14.1667 3.28438 14.5405 3.28438 15.0001V15.6251H1.61772V15.0001Z" fill="#15D055"/>
</g>
<defs>
<clipPath id="clip0">
<rect width="20" height="20" fill="white" transform="translate(0.57605)"/>
</clipPath>
</defs>
</svg>
