<svg width="15" height="18" viewBox="0 0 15 18" fill="none" xmlns="http://www.w3.org/2000/svg">
<path d="M0 0C0 2.607 0.937001 4.57001 2.303 6.07001C3.398 7.27101 4.752 8.174 6.117 9.035C4.758 9.885 3.404 10.787 2.309 11.977C0.942998 13.465 0 15.416 0 18H1.5C1.5 15.762 2.244 14.268 3.41 12.99C4.582 11.719 6.205 10.711 7.893 9.668C9.58 8.631 11.332 7.56401 12.697 6.07001C14.057 4.57001 15 2.607 15 0H3C3 0.551 3.076 1.037 3.182 1.5H13.371C13.277 2.045 13.119 2.543 12.926 3H3.773C4.09 3.539 4.506 4.031 5.004 4.5H12.023C11.877 4.687 11.748 4.88101 11.584 5.05701C11.285 5.38501 10.951 5.701 10.594 6H6.937C7.471 6.363 8.045 6.72701 8.672 7.11301L8.883 7.242C8.432 7.547 7.975 7.846 7.5 8.145C5.959 7.189 4.488 6.23401 3.41 5.05701C2.244 3.77301 1.5 2.262 1.5 0H0ZM10.166 9.92599C9.697 10.23 9.223 10.518 8.754 10.799C8.76 10.805 8.771 10.811 8.783 10.816L8.672 10.887C8.045 11.273 7.471 11.637 6.937 12H10.43C10.998 12.457 11.508 12.955 11.947 13.5H5.004C4.506 13.969 4.09 14.461 3.773 15H12.867C13.072 15.463 13.242 15.955 13.348 16.5H3.182C3.076 16.963 3 17.449 3 18H15C15 13.969 12.809 11.725 10.166 9.92599Z" fill="white"/>
</svg>
