<svg width="16" height="16" viewBox="0 0 16 16" fill="none" xmlns="http://www.w3.org/2000/svg">
<path d="M10.6667 9.01853V2.66666C10.6667 1.19391 9.47275 0 8 0C6.52725 0 5.33334 1.19391 5.33334 2.66666V9.0185C4.515 9.75094 4 10.8153 4 12C4 14.2092 5.79087 16 8 16C10.2091 16 12 14.2092 12 12C12 10.8153 11.485 9.75094 10.6667 9.01853ZM8 14.6667C6.52725 14.6667 5.33334 13.4727 5.33334 12C5.33334 11.2301 5.65962 10.5159 6.22256 10.012L6.66669 9.61453V2.66666C6.66669 1.93028 7.26366 1.33331 8.00003 1.33331C8.73641 1.33331 9.33337 1.93025 9.33337 2.66666V9.61453L9.7775 10.012C10.3404 10.5159 10.6667 11.2301 10.6667 12C10.6667 13.4727 9.47275 14.6667 8 14.6667Z" fill="white"/>
<path d="M8.66702 5.33334H7.33368V13.3333H8.66702V5.33334Z" fill="white"/>
<path d="M8 14C9.10457 14 10 13.1046 10 12C10 10.8954 9.10457 10 8 10C6.89543 10 6 10.8954 6 12C6 13.1046 6.89543 14 8 14Z" fill="white"/>
</svg>
