<svg width="20" height="30" viewBox="0 0 20 30" fill="none" xmlns="http://www.w3.org/2000/svg">
<path d="M19 11.5714V14.1429C19 16.5298 18.0518 18.819 16.364 20.5068C14.6761 22.1947 12.3869 23.1429 10 23.1429M10 23.1429C7.61305 23.1429 5.32387 22.1947 3.63604 20.5068C1.94821 18.819 1 16.5298 1 14.1429V11.5714M10 23.1429V28.2857M4.85714 28.2857H15.1429" stroke="white" stroke-opacity="0.25" stroke-width="1.5" stroke-linecap="round" stroke-linejoin="round"/>
<path d="M10 0C8.97705 0 7.99597 0.406376 7.27261 1.12973C6.54926 1.85309 6.14288 2.83416 6.14288 3.85714V14.1429C6.14288 15.1658 6.54926 16.1469 7.27261 16.8703C7.99597 17.5936 8.97705 18 10 18C11.023 18 12.0041 17.5936 12.7274 16.8703C13.4508 16.1469 13.8572 15.1658 13.8572 14.1429V3.85714C13.8572 2.83416 13.4508 1.85309 12.7274 1.12973C12.0041 0.406376 11.023 0 10 0Z" fill="white" fill-opacity="0.25"/>
</svg>
