<svg width="21" height="21" viewBox="0 0 21 21" fill="none" xmlns="http://www.w3.org/2000/svg">
<path d="M11.75 4.25V5.5H14.6162L9.98242 10.1338C9.25 9.58691 8.35644 9.25 7.375 9.25C4.96777 9.25 3 11.2178 3 13.625C3 16.0322 4.96777 18 7.375 18C9.78223 18 11.75 16.0322 11.75 13.625C11.75 12.6436 11.4131 11.75 10.8662 11.0176L15.5 6.38379V9.25H16.75V4.25H11.75ZM7.375 10.5C9.1084 10.5 10.5 11.8916 10.5 13.625C10.5 15.3584 9.1084 16.75 7.375 16.75C5.6416 16.75 4.25 15.3584 4.25 13.625C4.25 11.8916 5.6416 10.5 7.375 10.5Z" fill="white"/>
</svg>
