<svg width="20" height="20" viewBox="0 0 20 20" fill="none" xmlns="http://www.w3.org/2000/svg">
<path d="M9.99999 3.33334C11.7236 3.33334 13.3577 3.93132 14.7805 5.03839C16.2032 6.13738 17.4146 7.74546 18.2845 9.75759C18.3496 9.91112 18.3496 10.0889 18.2845 10.2344C16.5447 14.2586 13.4471 16.6667 9.99999 16.6667H9.99186C6.55284 16.6667 3.45527 14.2586 1.71544 10.2344C1.6504 10.0889 1.6504 9.91112 1.71544 9.75759C3.45527 5.73334 6.55284 3.33334 9.99186 3.33334H9.99999ZM9.99999 6.76769C8.20324 6.76769 6.74796 8.21415 6.74796 10C6.74796 11.7778 8.20324 13.2243 9.99999 13.2243C11.7886 13.2243 13.2439 11.7778 13.2439 10C13.2439 8.21415 11.7886 6.76769 9.99999 6.76769ZM10.001 7.97803C11.1148 7.97803 12.0254 8.88308 12.0254 9.99823C12.0254 11.1053 11.1148 12.0104 10.001 12.0104C8.87901 12.0104 7.96845 11.1053 7.96845 9.99823C7.96845 9.86086 7.98471 9.73156 8.0091 9.60227H8.04975C8.95219 9.60227 9.68389 8.89116 9.71641 8.00227C9.80584 7.98611 9.90341 7.97803 10.001 7.97803Z" fill="white"/>
</svg>
