<svg width="27" height="27" viewBox="0 0 27 27" fill="none" xmlns="http://www.w3.org/2000/svg">
<g clip-path="url(#clip0)">
<path d="M25.3124 19.3994C25.3124 19.8768 25.1346 20.3346 24.8182 20.6722C24.5017 21.0098 24.0725 21.1994 23.6249 21.1994L3.37491 21.1994C2.92735 21.1994 2.49813 21.0098 2.18166 20.6722C1.8652 20.3346 1.68741 19.8768 1.68741 19.3994L1.68741 8.59942C1.68741 8.12203 1.8652 7.66419 2.18167 7.32663C2.49813 6.98906 2.92735 6.79942 3.37491 6.79942L23.6249 6.79942C24.0725 6.79942 24.5017 6.98906 24.8182 7.32663C25.1346 7.66419 25.3124 8.12203 25.3124 8.59942L25.3124 19.3994ZM26.9999 8.59942C26.9999 7.64464 26.6443 6.72897 26.0114 6.05384C25.3785 5.3787 24.52 4.99942 23.6249 4.99942L3.37491 4.99942C2.4798 4.99942 1.62136 5.3787 0.988424 6.05383C0.355488 6.72897 -9.16684e-05 7.64464 -9.17101e-05 8.59942L-9.21822e-05 19.3994C-9.22239e-05 20.3542 0.355487 21.2699 0.988424 21.945C1.62136 22.6201 2.4798 22.9994 3.37491 22.9994L23.6249 22.9994C24.52 22.9994 25.3785 22.6201 26.0114 21.945C26.6443 21.2699 26.9999 20.3542 26.9999 19.3994L26.9999 8.59942Z" fill="white" fill-opacity="0.25"/>
</g>
<defs>
<clipPath id="clip0">
<rect width="27" height="27" fill="white" transform="translate(26.9999 -0.000579834) rotate(90)"/>
</clipPath>
</defs>
</svg>
