<svg width="17" height="20" viewBox="0 0 17 20" fill="none" xmlns="http://www.w3.org/2000/svg">
<path d="M5.332 0.251326C5.262 0.257326 5.197 0.269307 5.133 0.287307C5.092 0.304307 5.086 0.304329 5.062 0.316329L2.121 0.826308C1.764 0.890308 1.5 1.20131 1.5 1.56431V3.77333C1.5 5.58933 1.266 6.69131 0.258003 7.56431C0.0940032 7.71031 0 7.91631 0 8.13231V19.0013C0 19.4173 0.334 19.7513 0.75 19.7513H15.75C16.166 19.7513 16.5 19.4173 16.5 19.0013V8.12633C16.5 7.91033 16.406 7.70531 16.242 7.56431C15.24 6.68531 15 5.58433 15 3.77333V1.56431C15 1.20131 14.736 0.890308 14.379 0.826308L11.449 0.316329C11.426 0.310329 11.426 0.304323 11.391 0.298323C11.15 0.210323 10.887 0.251311 10.688 0.404311C10.512 0.539311 9.398 1.14833 8.25 1.14833C7.107 1.14833 6 0.539311 5.824 0.404311C5.678 0.298311 5.508 0.240326 5.332 0.251326ZM4.523 1.92732C4.641 3.50332 6.258 4.75133 8.25 4.75133C10.242 4.75133 11.859 3.50332 11.977 1.92732L13.5 2.19731V3.77333C13.5 5.56033 13.887 7.0953 15 8.2913V18.2513H1.5V8.30232C2.619 7.09532 3 5.56033 3 3.77333V2.19731L4.523 1.92732ZM5.25 7.75133C4.014 7.75133 3 8.76533 3 10.0013H4.5C4.5 9.58033 4.828 9.25133 5.25 9.25133C5.672 9.25133 6 9.58033 6 10.0013C6 10.0373 5.889 10.4173 5.637 10.8343C5.391 11.2503 5.033 11.7303 4.67 12.1693C3.949 13.0543 3.223 13.7813 3.223 13.7813L3 14.0033V15.2513H7.5V13.7513H5.262C5.508 13.4823 5.543 13.4643 5.83 13.1193C6.217 12.6443 6.609 12.1233 6.926 11.6073C7.236 11.0973 7.5 10.6173 7.5 10.0013C7.5 8.76533 6.486 7.75133 5.25 7.75133ZM11.25 7.75133C10.014 7.75133 9 8.76533 9 10.0013H10.5C10.5 9.58033 10.828 9.25133 11.25 9.25133C11.672 9.25133 12 9.58033 12 10.0013C12 10.2013 11.959 10.2593 11.865 10.3533C11.771 10.4413 11.602 10.5413 11.391 10.6113C10.975 10.7463 10.512 10.7513 10.512 10.7513C10.506 10.7513 10.488 10.7513 10.488 10.7513L10.5 11.5013L10.488 12.2513C10.488 12.2513 10.506 12.2513 10.512 12.2513C10.512 12.2513 10.975 12.2573 11.391 12.3923C11.602 12.4623 11.771 12.5623 11.865 12.6503C11.959 12.7443 12 12.8023 12 13.0013C12 13.4233 11.672 13.7513 11.25 13.7513C10.828 13.7513 10.5 13.4233 10.5 13.0013H9C9 14.2383 10.014 15.2513 11.25 15.2513C12.486 15.2513 13.5 14.2383 13.5 13.0013C13.5 12.4333 13.26 11.9293 12.932 11.5953C12.891 11.5543 12.844 11.5373 12.803 11.5013C12.844 11.4663 12.891 11.4493 12.932 11.4083C13.26 11.0743 13.5 10.5703 13.5 10.0013C13.5 8.76533 12.486 7.75133 11.25 7.75133Z" fill="white"/>
</svg>
