<svg width="22" height="22" viewBox="0 0 22 22" fill="none" xmlns="http://www.w3.org/2000/svg">
<path d="M15.535 0.332031C19.2075 0.332031 21.6667 2.91036 21.6667 6.74536V15.5973C21.6667 19.4214 19.2075 21.9987 15.535 21.9987H6.1425C2.47 21.9987 0 19.4214 0 15.5973V6.74536C0 2.91036 2.47 0.332031 6.1425 0.332031H15.535ZM10.8225 9.51978C10.3025 9.51978 9.88 9.95203 9.88 10.4731V15.2614C9.88 15.7814 10.3025 16.2039 10.8225 16.2039C11.3533 16.2039 11.7758 15.7814 11.7758 15.2614V10.4731C11.7758 9.95203 11.3533 9.51978 10.8225 9.51978ZM10.8442 6.08561C10.3133 6.08561 9.89083 6.50811 9.89083 7.03895C9.89083 7.55786 10.3133 7.98145 10.8225 7.98145C11.3642 7.98145 11.7867 7.55786 11.7867 7.03895C11.7867 6.50811 11.3642 6.08561 10.8442 6.08561Z" fill="#EFCB37"/>
</svg>
