<svg width="14" height="19" viewBox="0 0 14 19" fill="none" xmlns="http://www.w3.org/2000/svg">
<path d="M11.0145 5.442C11.0145 7.68316 9.19768 9.49997 6.95652 9.49997C4.71537 9.49997 2.89855 7.68316 2.89855 5.442C2.89855 3.20085 4.71537 1.38403 6.95652 1.38403C9.19768 1.38403 11.0145 3.20085 11.0145 5.442ZM12.8479 15.7553C13.0942 16.3499 13.2486 16.9772 13.3069 17.6159H13.074C13.0164 17.0077 12.8683 16.4105 12.6337 15.8441C12.3249 15.0985 11.8723 14.4211 11.3016 13.8505C10.731 13.2799 10.0536 12.8273 9.30808 12.5185C8.56255 12.2096 7.76348 12.0507 6.95652 12.0507C6.14956 12.0507 5.3505 12.2096 4.60496 12.5185C3.85942 12.8273 3.18201 13.2799 2.6114 13.8505C2.04079 14.4211 1.58816 15.0985 1.27935 15.8441C1.04474 16.4105 0.896631 17.0077 0.838999 17.6159H0.606115C0.664418 16.9772 0.818843 16.3499 1.06512 15.7553C1.38558 14.9817 1.85529 14.2787 2.44743 13.6865C3.03958 13.0944 3.74255 12.6247 4.51622 12.3042C5.28989 11.9838 6.11911 11.8188 6.95652 11.8188C7.79394 11.8188 8.62315 11.9838 9.39682 12.3042C10.1705 12.6247 10.8735 13.0944 11.4656 13.6865C12.0577 14.2787 12.5275 14.9817 12.8479 15.7553Z" stroke="white" stroke-opacity="0.3" stroke-width="1.15942"/>
</svg>
