<svg width="15" height="20" viewBox="0 0 15 20" fill="none" xmlns="http://www.w3.org/2000/svg">
<path d="M7.5 0.25C5.308 0.25 3.397 0.930998 2.06 2.295C0.721997 3.659 0 5.657 0 8.125C0 12.426 1.233 15.445 1.441 15.938L0.0790024 18.666C0.0220024 18.78 -0.00400055 18.907 0.000999451 19.035C0.00699945 19.162 0.045999 19.286 0.112999 19.395C0.179999 19.503 0.274002 19.593 0.385002 19.655C0.497002 19.717 0.622 19.75 0.75 19.75H14.25C14.378 19.75 14.503 19.717 14.615 19.655C14.726 19.593 14.82 19.503 14.887 19.395C14.954 19.286 14.993 19.162 14.999 19.035C15.004 18.907 14.978 18.78 14.921 18.666L13.559 15.938C13.767 15.445 15 12.426 15 8.125C15 5.657 14.278 3.659 12.94 2.295C11.603 0.930998 9.692 0.25 7.5 0.25ZM7.5 1.75C9.389 1.75 10.854 2.30699 11.871 3.34399C12.888 4.37999 13.5 5.944 13.5 8.125C13.5 12.458 12.064 15.695 12.064 15.695C12.02 15.796 11.998 15.906 12 16.016C12.003 16.127 12.03 16.235 12.079 16.334L13.037 18.25H1.963L2.921 16.334C2.97 16.235 2.997 16.127 3 16.016C3.002 15.906 2.98 15.796 2.936 15.695C2.936 15.695 1.5 12.458 1.5 8.125C1.5 5.944 2.112 4.37999 3.129 3.34399C4.146 2.30699 5.611 1.75 7.5 1.75ZM4.799 6.25C3.804 6.25 3 6.918 3 7.741C3 8.566 3.804 9.23199 4.799 9.23199C6.18 9.23199 7.5 7.741 7.5 7.741C7.5 7.741 6.2 6.25 4.799 6.25ZM7.5 7.741C7.5 7.741 8.82 9.23199 10.201 9.23199C11.196 9.23199 12 8.565 12 7.741C12 6.918 11.196 6.25 10.201 6.25C8.8 6.25 7.5 7.741 7.5 7.741ZM7.5 10.732C6.672 10.732 6 12.058 6 13.188C6 14.317 6.672 15.232 7.5 15.232C8.328 15.232 9 14.317 9 13.188C9 12.058 8.328 10.732 7.5 10.732Z" fill="white"/>
</svg>
