<svg width="22" height="23" viewBox="0 0 22 23" fill="none" xmlns="http://www.w3.org/2000/svg">
<path d="M15.535 0.666016C19.2075 0.666016 21.6667 3.24435 21.6667 7.07935V15.9313C21.6667 19.7554 19.2075 22.3327 15.535 22.3327H6.1425C2.47 22.3327 0 19.7554 0 15.9313V7.07935C0 3.24435 2.47 0.666016 6.1425 0.666016H15.535ZM14.0942 8.21793C13.7258 7.84852 13.13 7.84852 12.7508 8.21793L10.8333 10.1452L8.905 8.21793C8.52583 7.84852 7.93 7.84852 7.56167 8.21793C7.19333 8.58627 7.19333 9.19293 7.56167 9.56018L9.49 11.4896L7.56167 13.4071C7.19333 13.7863 7.19333 14.3821 7.56167 14.7493C7.74583 14.9335 7.995 15.0321 8.23333 15.0321C8.4825 15.0321 8.72083 14.9335 8.905 14.7493L10.8333 12.8329L12.7617 14.7493C12.9458 14.9454 13.1842 15.0321 13.4225 15.0321C13.6717 15.0321 13.91 14.9335 14.0942 14.7493C14.4625 14.3821 14.4625 13.7863 14.0942 13.4179L12.1658 11.4896L14.0942 9.56018C14.4625 9.19293 14.4625 8.58627 14.0942 8.21793Z" fill="#F73333"/>
</svg>
