<svg width="21" height="21" viewBox="0 0 21 21" fill="none" xmlns="http://www.w3.org/2000/svg">
<g clip-path="url(#clip0)">
<path d="M14.0763 4.00729H10.7583C8.82894 4.00729 7.8194 7.27699 7.8194 10.5068C7.8194 13.7366 8.82901 17.0063 10.7583 17.0063H14.0763C17.66 17.0063 20.5757 14.0905 20.5757 10.5068C20.5757 6.9231 17.66 4.00729 14.0763 4.00729Z" fill="#15D055"/>
<path d="M2.29209 9.82022H1.26239C0.88334 9.82022 0.575928 10.1276 0.575928 10.5066C0.575928 10.8857 0.88334 11.1931 1.26239 11.1931H2.29209C2.67115 11.1931 2.97856 10.8857 2.97856 10.5066C2.97849 10.1276 2.67115 9.82022 2.29209 9.82022Z" fill="#15D055"/>
<path d="M5.95398 9.82022H4.92433C4.5452 9.82022 4.23785 10.1276 4.23785 10.5066C4.23785 10.8857 4.5452 11.1931 4.92433 11.1931H5.95398C6.33311 11.1931 6.64052 10.8857 6.64052 10.5066C6.64052 10.1276 6.33311 9.82022 5.95398 9.82022Z" fill="#15D055"/>
<path d="M2.18171 14.4832L1.16274 14.6324C0.787665 14.687 0.528351 15.0356 0.583263 15.411C0.633115 15.7523 0.926496 15.9979 1.2613 15.9979C1.29449 15.9979 1.32801 15.9956 1.36188 15.9907L2.38078 15.8415C2.75586 15.7868 3.01524 15.4382 2.96039 15.0628C2.90528 14.688 2.55577 14.4288 2.18171 14.4832Z" fill="#15D055"/>
<path d="M5.85356 13.9465L4.83457 14.0957C4.45949 14.1503 4.2001 14.4989 4.25501 14.8743C4.30494 15.2155 4.59825 15.4612 4.93306 15.4612C4.96625 15.4612 4.99984 15.4588 5.03364 15.4538L6.05263 15.3047C6.42771 15.25 6.68703 14.9014 6.63212 14.5261C6.57754 14.1509 6.22864 13.8906 5.85356 13.9465Z" fill="#15D055"/>
<path d="M1.16274 6.38112L2.18171 6.53021C2.21557 6.53527 2.2491 6.53763 2.28222 6.53763C2.61709 6.53763 2.91034 6.29187 2.96039 5.95066C3.01531 5.57531 2.75586 5.22681 2.38078 5.17204L1.36188 5.02288C0.986803 4.96831 0.638241 5.22742 0.583261 5.60243C0.52835 5.97785 0.787731 6.32641 1.16274 6.38112Z" fill="#15D055"/>
<path d="M4.83457 6.91861L5.85356 7.06776C5.88735 7.07282 5.92095 7.07518 5.954 7.07518C6.28888 7.07518 6.58213 6.82949 6.63212 6.48821C6.68703 6.11286 6.42771 5.76423 6.05263 5.70952L5.03364 5.56043C4.65951 5.50377 4.30999 5.7649 4.25501 6.13998C4.2001 6.5154 4.45949 6.8639 4.83457 6.91861Z" fill="#15D055"/>
</g>
<defs>
<clipPath id="clip0">
<rect width="20" height="20" fill="white" transform="translate(0.575928 0.506348)"/>
</clipPath>
</defs>
</svg>
