<svg width="22" height="22" viewBox="0 0 22 22" fill="none" xmlns="http://www.w3.org/2000/svg">
<path d="M15.535 0C19.2075 0 21.6667 2.57833 21.6667 6.41333V15.2653C21.6667 19.0883 19.2075 21.6667 15.535 21.6667H6.1425C2.47 21.6667 0 19.0883 0 15.2653V6.41333C0 2.57833 2.47 0 6.1425 0H15.535ZM15.3617 7.58333C14.9933 7.215 14.3867 7.215 14.0183 7.58333L9.54417 12.0575L7.64833 10.1617C7.28 9.79333 6.67333 9.79333 6.305 10.1617C5.93667 10.53 5.93667 11.1258 6.305 11.505L8.88333 14.0725C9.0675 14.2567 9.30583 14.3433 9.54417 14.3433C9.79333 14.3433 10.0317 14.2567 10.2158 14.0725L15.3617 8.92667C15.73 8.55833 15.73 7.9625 15.3617 7.58333Z" fill="#15D055"/>
</svg>
