<svg width="24" height="24" viewBox="0 0 24 24" fill="none" xmlns="http://www.w3.org/2000/svg">
<rect width="24" height="24" rx="12" fill="white" fill-opacity="0.25"/>
<path fill-rule="evenodd" clip-rule="evenodd" d="M11.5967 7.73128C12.3365 8.17912 12.8552 8.93695 12.9497 9.81663C13.2514 9.95273 13.5863 10.031 13.9413 10.031C15.2374 10.031 16.2879 9.01676 16.2879 7.7656C16.2879 6.51424 15.2374 5.5 13.9413 5.5C12.6576 5.50039 11.6163 6.4965 11.5967 7.73128ZM10.0594 12.37C11.3555 12.37 12.406 11.3556 12.406 10.1045C12.406 8.85328 11.3553 7.83905 10.0594 7.83905C8.76349 7.83905 7.7124 8.85348 7.7124 10.1046C7.7124 11.3558 8.76349 12.37 10.0594 12.37ZM11.0548 12.5245H9.0636C7.40689 12.5245 6.05908 13.826 6.05908 15.4255V17.7765L6.06527 17.8133L6.233 17.864C7.81403 18.341 9.1876 18.5 10.3182 18.5C12.5264 18.5 13.8063 17.8922 13.8852 17.8534L14.0419 17.7769H14.0587V15.4255C14.0593 13.826 12.7115 12.5245 11.0548 12.5245ZM14.9371 10.1856H12.9613C12.9399 10.9488 12.6024 11.6361 12.0687 12.1304C13.5413 12.5532 14.6188 13.8716 14.6188 15.429V16.1534C16.5696 16.0844 17.6938 15.5506 17.7679 15.5147L17.9246 15.438H17.9414V13.0862C17.9414 11.4869 16.5936 10.1856 14.9371 10.1856Z" fill="white"/>
</svg>
