<svg width="51" height="50" viewBox="0 0 51 50" fill="none" xmlns="http://www.w3.org/2000/svg">
<g clip-path="url(#clip0)">
<path d="M10.5372 27.4098C10.8243 28.3463 11.1211 29.3149 11.2692 30.2904C11.3298 30.6879 11.5672 33.5797 11.6956 35.1684C11.7447 35.7771 12.2063 36.272 12.8102 36.3633L14.9197 36.6823C15.2239 36.7283 15.4665 36.9602 15.5257 37.2621L15.8036 38.6837C15.9245 39.3016 16.4661 39.7473 17.0956 39.747L33.4552 39.7373C34.0738 39.7368 34.6086 39.3056 34.74 38.7011L35.0583 37.2375C35.1286 36.9486 35.3673 36.7315 35.6615 36.6887L38.2299 36.3157C38.847 36.2261 39.3165 35.7157 39.354 35.0931C39.4525 33.4585 39.6364 30.4825 39.6934 30.0748C39.8285 29.112 40.1126 28.1604 40.3871 27.2346C40.7718 25.9391 41.1696 24.6018 41.1696 23.211C41.1701 14.3296 34.1106 7.10547 25.4336 7.10547C16.7567 7.10547 9.69727 14.3335 9.69727 23.2169C9.69735 24.6697 10.1243 26.0628 10.5372 27.4098ZM27.4841 26.5902C27.5839 24.0676 29.846 23.4332 32.3687 23.5329C34.8913 23.6327 36.7191 24.4288 36.6193 26.9514C36.5196 29.474 34.3938 31.4382 31.8711 31.3384C29.3485 31.2386 27.3844 29.1128 27.4841 26.5902ZM26 31.5403L27.6374 33.965C27.7826 34.1801 27.8025 34.4561 27.6896 34.6898L27.4547 35.176C27.333 35.4277 27.0781 35.5876 26.7987 35.5876H25.3961H23.9936C23.714 35.5876 23.4591 35.4276 23.3375 35.176L23.1027 34.6898C22.9898 34.4561 23.0097 34.1801 23.1549 33.965L24.7923 31.5403C25.0812 31.1124 25.7111 31.1124 26 31.5403ZM18.4983 23.533C21.021 23.4332 23.2831 24.0676 23.3829 26.5903C23.4826 29.1129 21.5185 31.2387 18.9959 31.3385C16.4732 31.4382 14.3474 29.4741 14.2477 26.9515C14.1479 24.4288 15.9757 23.6327 18.4983 23.533Z" fill="#F73333"/>
<path d="M45.9535 4.78876C46.1498 3.58369 45.7829 2.30469 44.8507 1.37724C43.3534 -0.112469 40.9108 -0.139593 39.3826 1.31833C37.7847 2.84276 37.7622 5.37438 39.3149 6.92716L37.8877 8.35444C37.3174 8.92479 37.3174 9.84946 37.8877 10.4198L40.3225 12.8546C40.8927 13.4249 41.8175 13.4249 42.3878 12.8546L43.815 11.4273C45.3679 12.9802 47.8995 12.9575 49.4239 11.3597C50.8818 9.83149 50.8546 7.38876 49.3649 5.89162C48.4375 4.95943 47.1586 4.59251 45.9535 4.78876Z" fill="#F73333"/>
<path d="M7.18502 11.4272L8.61231 12.8545C9.18265 13.4249 10.1073 13.4249 10.6776 12.8545L13.1124 10.4197C13.6827 9.84939 13.6827 8.92472 13.1124 8.35437L11.6851 6.92708C13.238 5.37431 13.2153 2.84269 11.6175 1.31826C10.0893 -0.139582 7.64662 -0.112458 6.1494 1.37725C5.21729 2.3047 4.85037 3.5837 5.04662 4.78877C3.84155 4.59253 2.56263 4.95944 1.63509 5.89155C0.145385 7.38869 0.118179 9.83141 1.57611 11.3596C3.10054 12.9575 5.63216 12.98 7.18502 11.4272Z" fill="#F73333"/>
<path d="M49.4238 38.6405C47.8994 37.0425 45.3678 37.02 43.815 38.5728L42.3877 37.1455C41.8174 36.5752 40.8927 36.5752 40.3225 37.1455L37.8877 39.5803C37.3174 40.1507 37.3174 41.0754 37.8877 41.6457L39.3149 43.073C37.7621 44.6259 37.7847 47.1575 39.3826 48.6818C40.9108 50.1398 43.3535 50.1126 44.8506 48.6229C45.7828 47.6955 46.1497 46.4165 45.9535 45.2114C47.1585 45.4076 48.4375 45.0407 49.3649 44.1085C50.8545 42.6113 50.8817 40.1687 49.4238 38.6405Z" fill="#F73333"/>
<path d="M5.04649 45.2114C4.85025 46.4164 5.21716 47.6955 6.14935 48.6229C7.64657 50.1126 10.0892 50.1397 11.6174 48.6818C13.2153 47.1574 13.2378 44.6258 11.685 43.073L13.1123 41.6457C13.6827 41.0754 13.6827 40.1507 13.1123 39.5803L10.6775 37.1455C10.1072 36.5752 9.18252 36.5752 8.61226 37.1455L7.18497 38.5728C5.63211 37.02 3.10049 37.0425 1.57614 38.6405C0.118219 40.1687 0.145344 42.6113 1.63505 44.1085C2.5625 45.0407 3.84142 45.4076 5.04649 45.2114Z" fill="#F73333"/>
</g>
<defs>
<clipPath id="clip0">
<rect width="50" height="50" fill="white" transform="translate(0.5)"/>
</clipPath>
</defs>
</svg>
