<svg width="24" height="24" viewBox="0 0 24 24" fill="none" xmlns="http://www.w3.org/2000/svg">
<rect width="24" height="24" rx="12" fill="white" fill-opacity="0.25"/>
<path d="M7.78594 14.5143H8.84008V16H5V14.5143H6.05414V9.48571H5V8H8.84008V9.48571H7.78594V14.5143Z" fill="white"/>
<path d="M11.483 8H14.5325C15.779 8 16.8332 8.38095 17.6949 9.14286C18.565 9.89714 19 10.8495 19 12C19 13.1505 18.5691 14.1067 17.7074 14.8686C16.8457 15.6229 15.7874 16 14.5325 16H11.483V8ZM13.2148 14.5143H14.5325C15.3272 14.5143 15.9798 14.2933 16.4901 13.8514C17.0088 13.4019 17.2682 12.7848 17.2682 12C17.2682 11.2152 17.0088 10.6019 16.4901 10.16C15.9798 9.71048 15.3272 9.48571 14.5325 9.48571H13.2148V14.5143Z" fill="white"/>
</svg>
