<svg width="18" height="18" viewBox="0 0 18 18" fill="none" xmlns="http://www.w3.org/2000/svg">
<path d="M8.91113 0.875C8.26613 0.875 7.64113 0.957976 7.04613 1.09998L7.33913 2.315C7.84713 2.193 8.37413 2.125 8.91113 2.125C10.6051 2.125 12.1431 2.74498 13.3401 3.75598L12.0361 4.625L15.7861 5.875V2.125L14.4241 3.03302C12.9741 1.69502 11.0351 0.875 8.91113 0.875ZM2.03613 2.125L2.95413 3.50201C1.61113 4.94701 0.786133 6.876 0.786133 9C0.786133 9.64 0.859129 10.26 1.00113 10.855L2.21713 10.572C2.09913 10.069 2.03613 9.542 2.03613 9C2.03613 7.306 2.65113 5.76798 3.66713 4.57098L4.53613 5.875L5.78613 2.125H2.03613ZM16.8211 7.13501L15.6051 7.41803C15.7231 7.92603 15.7861 8.453 15.7861 9C15.7861 10.694 15.1661 12.232 14.1551 13.429L13.2861 12.125L12.0361 15.875H15.7861L14.8781 14.513C16.2161 13.063 17.0361 11.124 17.0361 9C17.0361 8.36 16.9631 7.73001 16.8211 7.13501ZM2.03613 12.125V15.875L3.40314 14.962C4.85314 16.305 6.78713 17.125 8.91113 17.125C9.55113 17.125 10.1761 17.052 10.7761 16.91L10.4881 15.694C9.98013 15.812 9.45313 15.875 8.91113 15.875C7.21713 15.875 5.67413 15.26 4.47713 14.249L5.78613 13.375L2.03613 12.125Z" fill="white"/>
</svg>
