<svg width="24" height="24" viewBox="0 0 24 24" fill="none" xmlns="http://www.w3.org/2000/svg">
<path d="M11.5647 1.82862C14.1972 -0.803774 18.7182 -0.565283 21.6418 2.3581C24.5653 5.28149 24.8038 9.80231 22.1713 12.4347C20.1633 14.2932 15.5863 17.46 11.257 17.5226C9.78835 17.5438 8.25505 17.8592 7.21642 18.8977L5.02018 21.0939C5.51519 21.8288 5.42519 22.8188 4.78018 23.4488C4.06017 24.1837 2.86016 24.1837 2.14015 23.4488C1.84015 23.1638 1.66014 22.7888 1.60014 22.3988C1.21014 22.3388 0.835133 22.1588 0.550131 21.8588C-0.183378 21.1374 -0.183378 19.9374 0.550131 19.2189C1.18014 18.574 2.17015 18.484 2.90516 18.9789L5.37696 16.5073C6.265 15.6193 6.64199 14.3614 6.70864 13.1073C6.9526 8.51688 9.91127 3.81503 11.5647 1.82862Z" fill="#FDB118"/>
</svg>
