<svg width="21" height="22" viewBox="0 0 21 22" fill="none" xmlns="http://www.w3.org/2000/svg">
<path d="M11.0687 0.165039C11.8879 0.165039 12.6297 0.620039 13.0393 1.29171C13.2386 1.61671 13.3715 2.01754 13.3383 2.44004C13.3161 2.76504 13.4158 3.09004 13.5929 3.39337C14.1575 4.31421 15.4086 4.66087 16.3828 4.14087C17.4789 3.51254 18.8628 3.89171 19.4938 4.96421L20.2356 6.24254C20.8778 7.31504 20.5235 8.69087 19.4164 9.30837C18.4753 9.86087 18.1432 11.085 18.7078 12.0167C18.8849 12.3092 19.0842 12.5584 19.3942 12.71C19.7817 12.9159 20.0806 13.2409 20.291 13.5659C20.7006 14.2375 20.6674 15.0609 20.2688 15.7867L19.4938 17.0867C19.0842 17.78 18.3203 18.2134 17.5342 18.2134C17.1468 18.2134 16.715 18.105 16.3607 17.8884C16.0728 17.7042 15.7407 17.6392 15.3864 17.6392C14.2904 17.6392 13.3715 18.5384 13.3383 19.6109C13.3383 20.8567 12.3197 21.8317 11.0465 21.8317H9.54084C8.25658 21.8317 7.23802 20.8567 7.23802 19.6109C7.21588 18.5384 6.29697 17.6392 5.20092 17.6392C4.83557 17.6392 4.50344 17.7042 4.22666 17.8884C3.87238 18.105 3.42953 18.2134 3.05311 18.2134C2.25598 18.2134 1.49207 17.78 1.08243 17.0867L0.318521 15.7867C-0.0911131 15.0825 -0.113256 14.2375 0.296379 13.5659C0.473518 13.2409 0.805655 12.9159 1.18208 12.71C1.49207 12.5584 1.69135 12.3092 1.87956 12.0167C2.43312 11.085 2.10099 9.86087 1.15993 9.30837C0.0638838 8.69087 -0.290395 7.31504 0.340664 6.24254L1.08243 4.96421C1.72456 3.89171 3.09739 3.51254 4.20451 4.14087C5.16771 4.66087 6.41876 4.31421 6.98339 3.39337C7.16053 3.09004 7.26017 2.76504 7.23802 2.44004C7.21588 2.01754 7.33767 1.61671 7.54802 1.29171C7.95765 0.620039 8.69942 0.186706 9.50762 0.165039H11.0687ZM10.3047 7.94337C8.56657 7.94337 7.16053 9.30837 7.16053 11.0092C7.16053 12.71 8.56657 14.0642 10.3047 14.0642C12.0429 14.0642 13.4158 12.71 13.4158 11.0092C13.4158 9.30837 12.0429 7.94337 10.3047 7.94337Z" fill="#4595ED"/>
</svg>
