<svg width="12" height="15" viewBox="0 0 12 15" fill="none" xmlns="http://www.w3.org/2000/svg">
<path d="M11.9121 1.96655L10.7121 0.716542C10.5949 0.594462 10.405 0.594462 10.2879 0.716542C10.1707 0.838621 10.1707 1.03637 10.2879 1.15843L11.2758 2.18748L10.2879 3.21653C10.2316 3.27512 10.2 3.35446 10.2 3.43748V4.37498C10.2 5.06439 10.7382 5.62499 11.4 5.62499V10.9375C11.4 11.1099 11.2655 11.25 11.1 11.25C10.9345 11.25 10.8 11.1099 10.8 10.9375V10.3125C10.8 9.79551 10.3963 9.37498 9.89997 9.37498H9.59999V1.25001C9.59999 0.560595 9.06182 0 8.39998 0H2.40001C1.7382 0 1.20001 0.560595 1.20001 1.25001V12.5C0.538198 12.5 0 13.0606 0 13.75V14.6875C0 14.8602 0.134184 15 0.300008 15H10.5C10.6658 15 10.8 14.8602 10.8 14.6875V13.75C10.8 13.0606 10.2618 12.5 9.59999 12.5V10H9.9C10.0655 10 10.2 10.1401 10.2 10.3125V10.9375C10.2 11.4545 10.6037 11.875 11.1 11.875C11.5963 11.875 12 11.4545 12 10.9375V2.18751C12 2.10448 11.9683 2.02514 11.9121 1.96655ZM8.39998 5.31828C8.39998 5.49101 8.2658 5.63079 8.09997 5.63079H2.69999C2.53417 5.63079 2.39998 5.49101 2.39998 5.31828V1.56249C2.39998 1.38975 2.53417 1.24998 2.69999 1.24998H8.09997C8.2658 1.24998 8.39998 1.38975 8.39998 1.56249V5.31828Z" fill="#EFCB37"/>
</svg>
